<svg xmlns="http://www.w3.org/2000/svg" xmlns:xlink="http://www.w3.org/1999/xlink" width="4000" zoomAndPan="magnify" viewBox="0 0 3000 749.999995" height="1000" preserveAspectRatio="xMidYMid meet" version="1.0"><defs><g/></defs><g fill="#8a2be2" fill-opacity="1"><g transform="translate(177.170051, 514.726814)"><g><path d="M 280.984375 -401.40625 L 138.199219 -401.40625 C 131.890625 -401.40625 126.730469 -400.832031 121.570312 -400.261719 C 93.46875 -396.246094 68.238281 -386.496094 44.726562 -362.414062 C 20.644531 -338.902344 5.734375 -302.777344 5.734375 -268.941406 L 5.734375 -132.464844 C 5.734375 -98.632812 20.644531 -62.503906 44.726562 -38.992188 C 68.238281 -14.910156 93.46875 -4.585938 121.570312 -1.148438 C 126.730469 0 131.890625 0 138.199219 0 L 280.984375 0 C 287.292969 0 292.453125 0 297.613281 -1.148438 C 325.714844 -4.585938 350.945312 -14.910156 374.457031 -38.992188 C 397.964844 -62.503906 413.449219 -98.632812 413.449219 -132.464844 L 413.449219 -268.941406 C 413.449219 -302.777344 397.964844 -338.902344 374.457031 -362.414062 C 350.945312 -386.496094 325.714844 -396.246094 297.613281 -400.261719 C 292.453125 -400.832031 287.292969 -401.40625 280.984375 -401.40625 Z M 280.410156 -126.15625 L 138.199219 -126.15625 C 134.757812 -126.15625 131.890625 -129.023438 131.890625 -132.464844 L 131.890625 -268.371094 C 131.890625 -272.382812 134.757812 -275.824219 138.199219 -275.824219 L 280.410156 -275.824219 C 284.425781 -275.824219 287.292969 -272.382812 287.292969 -268.371094 L 287.292969 -132.464844 C 287.292969 -129.023438 284.425781 -126.15625 280.410156 -126.15625 Z M 280.410156 -126.15625 "/></g></g></g><g fill="#8a2be2" fill-opacity="1"><g transform="translate(599.166471, 514.726814)"><g><path d="M 277.542969 -124.4375 C 272.957031 -123.863281 270.664062 -127.875 270.664062 -131.890625 L 270.664062 -273.53125 C 270.664062 -307.9375 256.902344 -340.050781 231.667969 -364.707031 C 180.058594 -416.316406 96.335938 -416.316406 44.726562 -364.707031 C 22.9375 -342.917969 10.320312 -315.964844 6.882812 -287.867188 C 5.734375 -282.707031 5.734375 -276.972656 5.734375 -271.238281 L 5.734375 -58.492188 C 5.734375 19.496094 131.316406 19.496094 131.316406 -58.492188 L 131.316406 -271.238281 L 131.890625 -271.238281 C 131.890625 -272.382812 132.464844 -274.105469 133.609375 -275.824219 C 135.90625 -278.117188 140.492188 -278.117188 142.785156 -275.824219 C 143.933594 -274.105469 144.507812 -272.382812 144.507812 -271.238281 C 145.078125 -240.84375 144.507812 -159.988281 145.078125 -129.597656 C 145.652344 -57.34375 205.292969 1.71875 277.542969 1.71875 C 349.796875 1.71875 409.433594 -57.34375 410.007812 -129.597656 L 410.007812 -271.238281 C 410.007812 -272.382812 410.582031 -274.105469 412.300781 -275.824219 C 414.597656 -278.117188 418.609375 -278.117188 421.476562 -275.824219 C 422.625 -274.105469 423.199219 -272.382812 423.199219 -271.238281 L 423.199219 -58.492188 C 423.199219 19.496094 549.355469 19.496094 549.355469 -58.492188 L 549.355469 -271.238281 C 549.355469 -276.972656 548.78125 -282.707031 548.207031 -287.867188 C 544.195312 -315.964844 532.152344 -342.917969 510.359375 -364.707031 C 458.75 -416.316406 374.457031 -416.316406 322.847656 -364.707031 C 298.1875 -340.050781 284.425781 -307.9375 284.425781 -273.53125 L 283.851562 -131.890625 C 283.851562 -127.875 281.558594 -123.863281 277.542969 -124.4375 Z M 277.542969 -124.4375 "/></g></g></g><g fill="#8a2be2" fill-opacity="1"><g transform="translate(1157.050361, 514.726814)"><g><path d="M 280.984375 -401.40625 L 138.199219 -401.40625 C 131.890625 -401.40625 126.730469 -400.832031 121.570312 -400.261719 C 93.46875 -396.246094 68.238281 -386.496094 44.726562 -362.414062 C 20.644531 -338.902344 5.734375 -302.777344 5.734375 -268.941406 L 5.734375 -132.464844 C 5.734375 -98.632812 20.644531 -62.503906 44.726562 -38.992188 C 68.238281 -14.910156 93.46875 -4.585938 121.570312 -1.148438 C 126.730469 0 131.890625 0 138.199219 0 L 280.984375 0 C 287.292969 0 292.453125 0 297.613281 -1.148438 C 325.714844 -4.585938 350.945312 -14.910156 374.457031 -38.992188 C 397.964844 -62.503906 413.449219 -98.632812 413.449219 -132.464844 L 413.449219 -268.941406 C 413.449219 -302.777344 397.964844 -338.902344 374.457031 -362.414062 C 350.945312 -386.496094 325.714844 -396.246094 297.613281 -400.261719 C 292.453125 -400.832031 287.292969 -401.40625 280.984375 -401.40625 Z M 280.410156 -126.15625 L 138.199219 -126.15625 C 134.757812 -126.15625 131.890625 -129.023438 131.890625 -132.464844 L 131.890625 -268.371094 C 131.890625 -272.382812 134.757812 -275.824219 138.199219 -275.824219 L 280.410156 -275.824219 C 284.425781 -275.824219 287.292969 -272.382812 287.292969 -268.371094 L 287.292969 -132.464844 C 287.292969 -129.023438 284.425781 -126.15625 280.410156 -126.15625 Z M 280.410156 -126.15625 "/></g></g></g><g fill="#8a2be2" fill-opacity="1"><g transform="translate(1579.04678, 514.726814)"><g><path d="M 139.917969 -401.40625 C 67.09375 -401.40625 5.734375 -341.769531 5.734375 -268.371094 L 5.734375 -56.195312 C 5.734375 22.363281 131.890625 22.363281 131.890625 -56.195312 L 131.890625 -136.476562 L 137.050781 -136.476562 C 186.367188 -135.90625 235.683594 -135.90625 285 -135.90625 L 285 -56.195312 C 285 22.363281 411.15625 22.363281 411.15625 -56.195312 L 411.15625 -274.105469 C 411.15625 -342.917969 348.652344 -400.832031 280.984375 -400.832031 C 233.964844 -400.832031 186.941406 -401.40625 139.917969 -401.40625 Z M 138.773438 -275.25 L 278.117188 -275.25 C 286.71875 -275.25 287.292969 -262.0625 278.117188 -262.0625 L 139.34375 -262.0625 C 129.597656 -262.0625 129.597656 -275.25 138.773438 -275.25 Z M 138.773438 -275.25 "/></g></g></g><g fill="#8a2be2" fill-opacity="1"><g transform="translate(1998.749761, 514.726814)"><g><path d="M 138.199219 0 L 336.035156 0 C 414.597656 0 414.597656 -125.582031 336.035156 -125.582031 L 138.199219 -125.582031 C 134.183594 -125.582031 131.316406 -129.023438 131.316406 -132.464844 L 131.316406 -342.34375 C 131.316406 -420.902344 5.734375 -420.902344 5.734375 -342.34375 L 5.734375 -132.464844 C 5.734375 -126.15625 5.734375 -120.996094 6.882812 -115.835938 C 10.320312 -87.734375 20.644531 -62.503906 44.15625 -38.421875 C 68.238281 -14.910156 104.367188 0 138.199219 0 Z M 138.199219 0 "/></g></g></g><g fill="#8a2be2" fill-opacity="1"><g transform="translate(2400.678457, 514.726814)"><g><path d="M 280.984375 -401.40625 L 138.199219 -401.40625 C 131.890625 -401.40625 126.730469 -400.832031 121.570312 -400.261719 C 93.46875 -396.246094 68.238281 -386.496094 44.726562 -362.414062 C 20.644531 -338.902344 5.734375 -302.777344 5.734375 -268.941406 L 5.734375 -132.464844 C 5.734375 -98.632812 20.644531 -62.503906 44.726562 -38.992188 C 68.238281 -14.910156 93.46875 -4.585938 121.570312 -1.148438 C 126.730469 0 131.890625 0 138.199219 0 L 280.984375 0 C 287.292969 0 292.453125 0 297.613281 -1.148438 C 325.714844 -4.585938 350.945312 -14.910156 374.457031 -38.992188 C 397.964844 -62.503906 413.449219 -98.632812 413.449219 -132.464844 L 413.449219 -268.941406 C 413.449219 -302.777344 397.964844 -338.902344 374.457031 -362.414062 C 350.945312 -386.496094 325.714844 -396.246094 297.613281 -400.261719 C 292.453125 -400.832031 287.292969 -401.40625 280.984375 -401.40625 Z M 280.410156 -126.15625 L 138.199219 -126.15625 C 134.757812 -126.15625 131.890625 -129.023438 131.890625 -132.464844 L 131.890625 -268.371094 C 131.890625 -272.382812 134.757812 -275.824219 138.199219 -275.824219 L 280.410156 -275.824219 C 284.425781 -275.824219 287.292969 -272.382812 287.292969 -268.371094 L 287.292969 -132.464844 C 287.292969 -129.023438 284.425781 -126.15625 280.410156 -126.15625 Z M 280.410156 -126.15625 "/></g></g></g></svg>